<svg width="100" height="71" viewBox="0 0 100 71" fill="none" xmlns="http://www.w3.org/2000/svg">
<path d="M16.4671 70.6451C7.38524 70.6451 0 63.2599 0 54.178C0 45.0962 7.38524 37.7109 16.4671 37.7109C25.549 37.7109 32.9342 45.0962 32.9342 54.178C32.9342 63.3098 25.549 70.6451 16.4671 70.6451Z" fill="white"/>
<path d="M16.4671 70.6451C7.38524 70.6451 0 63.2599 0 54.178C0 45.0962 7.38524 37.7109 16.4671 37.7109C25.549 37.7109 32.9342 45.0962 32.9342 54.178C32.9342 63.3098 25.549 70.6451 16.4671 70.6451Z" fill="white"/>
<path d="M55.3893 1.83482L37.525 31.0265C37.026 31.8748 37.5749 32.9227 38.523 32.9227H56.3873H74.2516C75.1998 32.9227 75.7487 31.8249 75.2497 31.0265L57.3854 1.83482C56.8864 1.08631 55.8384 1.08631 55.3893 1.83482Z" fill="white"/>
<path d="M32.5849 6.77396L26.1478 0.336827C25.6987 -0.112276 24.9003 -0.112276 24.4512 0.336827L17.3653 7.42267C16.9162 7.87177 16.1178 7.87177 15.6687 7.42267L8.58287 0.336827C8.13377 -0.112276 7.33537 -0.112276 6.88627 0.336827L0.449132 6.77396C2.90051e-05 7.22307 2.90051e-05 8.02147 0.449132 8.47058L7.53497 15.5564C7.98407 16.0055 7.98407 16.8039 7.53497 17.253L0.449132 24.3389C2.90051e-05 24.788 2.90051e-05 25.5864 0.449132 26.0355L6.88627 32.4726C7.33537 32.9217 8.13377 32.9217 8.58287 32.4726L15.6687 25.3868C16.1178 24.9377 16.9162 24.9377 17.3653 25.3868L24.4512 32.4726C24.9003 32.9217 25.6987 32.9217 26.1478 32.4726L32.5849 26.0355C33.034 25.5864 33.034 24.788 32.5849 24.3389L25.4991 17.253C25.05 16.8039 25.05 16.0055 25.4991 15.5564L32.5849 8.47058C33.0839 8.02147 33.0839 7.27297 32.5849 6.77396Z" fill="white"/>
<path d="M40.6685 49.0877V51.1835H44.3112V52.6307H40.6685V55.475H38.8721V47.6406H44.7603V49.0877H40.6685Z" fill="white"/>
<path d="M47.2059 54.6766C46.6071 54.0778 46.2578 53.1796 46.2578 52.0319V47.6406H48.0542V51.9321C48.0542 53.3293 48.653 54.0279 49.8007 54.0279C50.3496 54.0279 50.7987 53.8782 51.0981 53.5289C51.3975 53.1796 51.5472 52.6806 51.5472 51.9321V47.6406H53.3437V52.0319C53.3437 53.1796 53.0443 54.0778 52.3956 54.6766C51.7968 55.2754 50.8985 55.6247 49.8007 55.6247C48.7029 55.6247 47.8047 55.2754 47.2059 54.6766Z" fill="white"/>
<path d="M56.9364 49.1376H54.4414V47.6406H61.2279V49.1376H58.7328V55.475H56.9364V49.1376Z" fill="white"/>
<path d="M63.2733 54.6766C62.6745 54.0778 62.3252 53.1796 62.3252 52.0319V47.6406H64.1216V51.9321C64.1216 53.3293 64.7204 54.0279 65.8681 54.0279C66.417 54.0279 66.8661 53.8782 67.1655 53.5289C67.4649 53.1796 67.6146 52.6806 67.6146 51.9321V47.6406H69.411V52.0319C69.411 53.1796 69.1116 54.0778 68.4629 54.6766C67.8641 55.2754 66.9659 55.6247 65.8681 55.6247C64.7703 55.6247 63.922 55.2754 63.2733 54.6766Z" fill="white"/>
<path d="M76.4969 55.4759L74.9999 53.2802H74.9001H73.3032V55.4759H71.5068V47.6914H74.9001C75.5987 47.6914 76.1975 47.7912 76.6965 48.0407C77.1955 48.2902 77.5947 48.5896 77.8941 49.0387C78.1436 49.4379 78.2933 49.9868 78.2933 50.5357C78.2933 51.1345 78.1436 51.6335 77.8941 52.0327C77.5947 52.4319 77.1955 52.7812 76.6965 52.9808L78.443 55.4759H76.4969ZM76.0478 49.4878C75.7484 49.2383 75.3492 49.1385 74.8003 49.1385H73.3032V51.883H74.8003C75.3492 51.883 75.7484 51.7832 76.0478 51.5337C76.3472 51.2842 76.447 50.9848 76.447 50.5357C76.4969 50.0367 76.3472 49.7373 76.0478 49.4878Z" fill="white"/>
<path d="M86.1278 54.0279V55.475H80.0898V47.6406H85.9781V49.0877H81.8862V50.7844H85.4791V52.2315H81.8862V54.0279H86.1278Z" fill="white"/>
<path d="M44.0119 68.2519H40.3691L39.6705 69.9485H37.8242L41.3172 62.1641H43.1137L46.6067 69.9485H44.7105L44.0119 68.2519ZM43.4629 66.9046L42.2154 63.9106L40.9679 66.9046H43.4629Z" fill="white"/>
<path d="M49.2022 69.5497C48.5534 69.2004 48.0544 68.7014 47.7051 68.1026C47.3558 67.5038 47.1562 66.8052 47.1562 66.0068C47.1562 65.2583 47.3558 64.5597 47.7051 63.911C48.0544 63.3121 48.6033 62.8131 49.2022 62.4638C49.8509 62.1145 50.5495 61.9648 51.3479 61.9648C52.0465 61.9648 52.6453 62.0647 53.1942 62.3142C53.7431 62.5637 54.1922 62.9129 54.5914 63.362L53.4437 64.41C52.8948 63.8112 52.2461 63.5118 51.4976 63.5118C50.9986 63.5118 50.5994 63.6116 50.2002 63.8112C49.801 64.0108 49.5016 64.3102 49.302 64.7094C49.1024 65.1086 49.0026 65.5078 49.0026 66.0068C49.0026 66.5058 49.1024 66.905 49.302 67.3042C49.5016 67.7034 49.801 68.0028 50.2002 68.2024C50.5994 68.402 50.9986 68.5018 51.4976 68.5018C52.296 68.5018 52.9447 68.2024 53.4437 67.5537L54.5914 68.6016C54.2421 69.0507 53.7431 69.4 53.1942 69.6495C52.6453 69.899 52.0465 69.9988 51.3479 69.9988C50.5994 70.0487 49.8509 69.899 49.2022 69.5497Z" fill="white"/>
<path d="M61.1271 68.2519H57.4844L56.7858 69.9485H54.9395L58.4325 62.1641H60.2289L63.7219 69.9485H61.8257L61.1271 68.2519ZM60.5782 66.9046L59.3307 63.9106L58.0832 66.9046H60.5782Z" fill="white"/>
<path d="M64.8711 62.1133H68.414C69.2623 62.1133 70.0108 62.263 70.6595 62.6123C71.3082 62.9117 71.8072 63.4107 72.1565 63.9596C72.5058 64.5584 72.7054 65.2071 72.7054 66.0055C72.7054 66.8039 72.5058 67.4526 72.1565 68.0514C71.8072 68.6502 71.3082 69.0993 70.6595 69.3987C70.0108 69.6981 69.2623 69.8977 68.414 69.8977H64.8711V62.1133ZM68.3142 68.4506C69.1126 68.4506 69.7114 68.251 70.1605 67.8019C70.6096 67.3528 70.8591 66.754 70.8591 66.0554C70.8591 65.3069 70.6096 64.7081 70.1605 64.3089C69.7114 63.8598 69.0627 63.6602 68.3142 63.6602H66.6675V68.5005H68.3142V68.4506Z" fill="white"/>
<path d="M80.4393 68.5005V69.9476H74.4014V62.1133H80.2896V63.5604H76.1978V65.257H79.8405V66.6542H76.1978V68.5005H80.4393Z" fill="white"/>
<path d="M89.3222 69.9476V65.257L87.0268 69.0993H86.2284L83.9329 65.3568V69.9476H82.2363V62.1133H83.7333L86.6275 66.9536L89.5218 62.1133H91.0188V69.9476H89.3222Z" fill="white"/>
<path d="M96.9565 67.1532V69.9476H95.1601V67.1532L92.1162 62.1133H94.0623L96.1582 65.6063L98.2041 62.1133H100L96.9565 67.1532Z" fill="white"/>
</svg>
